<?xml version="1.0" encoding="UTF-8" standalone="no"?>
<!DOCTYPE svg PUBLIC "-//W3C//DTD SVG 1.1//EN" "http://www.w3.org/Graphics/SVG/1.1/DTD/svg11.dtd">
<svg version="1.1" xmlns="http://www.w3.org/2000/svg" xmlns:xlink="http://www.w3.org/1999/xlink" preserveAspectRatio="xMidYMid meet" viewBox="0 0 640 640" width="400" height="400"><defs><path d="M445 192.28C445 259.17 390.69 313.48 323.8 313.48C256.91 313.48 202.61 259.17 202.61 192.28C202.61 125.39 256.91 71.09 323.8 71.09C390.69 71.09 445 125.39 445 192.28Z" id="egeYB6vjo"></path><path d="M394.57 134.13C405.61 134.13 414.57 143.08 414.57 154.13C414.57 181.22 414.57 242.48 414.57 269.57C414.57 280.61 405.61 289.57 394.57 289.57C362.26 289.57 285.35 289.57 253.04 289.57C242 289.57 233.04 280.61 233.04 269.57C233.04 242.48 233.04 181.22 233.04 154.13C233.04 143.08 242 134.13 253.04 134.13C285.35 134.13 362.26 134.13 394.57 134.13Z" id="atnjslM7t"></path><path d="M451.31 194.46C459.83 194.46 466.74 201.36 466.74 209.88C466.74 255.27 466.74 376.03 466.74 421.42C466.74 429.94 459.83 436.85 451.31 436.85C397.23 436.85 250.38 436.85 196.29 436.85C187.78 436.85 180.87 429.94 180.87 421.42C180.87 376.03 180.87 255.27 180.87 209.88C180.87 201.36 187.78 194.46 196.29 194.46C250.38 194.46 397.23 194.46 451.31 194.46Z" id="by15VOrIF"></path></defs><g><g><g><use xlink:href="#egeYB6vjo" opacity="1" fill="#b75ea8" fill-opacity="1"></use></g><g><use xlink:href="#atnjslM7t" opacity="1" fill="#fbfbfb" fill-opacity="1"></use></g><g><use xlink:href="#by15VOrIF" opacity="1" fill="#6c5849" fill-opacity="1"></use></g></g></g></svg>